<svg width="54" height="42" viewBox="0 0 54 42" fill="none" xmlns="http://www.w3.org/2000/svg">
<g clip-path="url(#clip0_1370_1469)">
<path d="M9.83609 41.8953V39.109C9.83609 38.0414 9.18638 37.3437 8.07492 37.3437C7.51338 37.3437 6.92168 37.5367 6.49241 38.1298C6.16756 37.6251 5.70812 37.3437 5.01433 37.3437C4.55489 37.3437 4.08153 37.4762 3.71259 37.9949V37.4321H2.75195V41.8953H3.72884V39.4346C3.72884 38.6485 4.14186 38.2787 4.79389 38.2787C5.44592 38.2787 5.77077 38.6927 5.77077 39.4346V41.8953H6.74766V39.4346C6.74766 38.6485 7.20709 38.2787 7.81271 38.2787C8.46242 38.2787 8.7896 38.6927 8.7896 39.4346V41.8953H9.84073H9.83609ZM24.2573 37.4321H22.6748V36.0831H21.6979V37.4321H20.8115V38.3205H21.6979V40.3673C21.6979 41.3906 22.1109 41.9977 23.2224 41.9977C23.6354 41.9977 24.1088 41.8651 24.4197 41.6721L24.1389 40.8417C23.8582 41.0348 23.5333 41.079 23.3106 41.079C22.8511 41.079 22.6609 40.7975 22.6609 40.337V38.3345H24.2434V37.4297H24.2573V37.4321ZM32.4946 37.3437C31.9331 37.3437 31.5619 37.6251 31.3414 37.9949V37.4321H30.3645V41.8953H31.3414V39.3904C31.3414 38.6485 31.6663 38.2345 32.2742 38.2345C32.4668 38.2345 32.6872 38.2787 32.8798 38.3229L33.1606 37.3879C32.968 37.3437 32.6872 37.3437 32.4946 37.3437ZM20.0272 37.8042C19.5678 37.4786 18.9181 37.3437 18.222 37.3437C17.1128 37.3437 16.3726 37.9065 16.3726 38.781C16.3726 39.523 16.9341 39.937 17.8971 40.0858L18.3565 40.13C18.8601 40.2184 19.1408 40.3673 19.1408 40.5905C19.1408 40.9162 18.7719 41.1534 18.1199 41.1534C17.4678 41.1534 16.9666 40.9162 16.6418 40.6929L16.1823 41.4348C16.6859 41.8046 17.3797 41.9977 18.0758 41.9977C19.3775 41.9977 20.1177 41.3906 20.1177 40.5603C20.1177 39.7742 19.5121 39.3602 18.5932 39.2113L18.1338 39.1671C17.7208 39.1229 17.3936 39.0346 17.3936 38.7531C17.3936 38.4275 17.7184 38.2484 18.222 38.2484C18.7835 38.2484 19.3311 38.4857 19.6119 38.6182L20.0249 37.8019L20.0272 37.8042ZM45.8949 37.3437C45.3333 37.3437 44.9621 37.6251 44.7416 37.9949V37.4321H43.7648V41.8953H44.7416V39.3904C44.7416 38.6485 45.0665 38.2345 45.6744 38.2345C45.867 38.2345 46.0875 38.2787 46.2801 38.3229L46.5608 37.3879C46.3543 37.3437 46.0735 37.3437 45.8949 37.3437ZM33.4715 39.6556C33.4715 41.0045 34.4043 41.9837 35.8383 41.9837C36.488 41.9837 36.9475 41.8512 37.4208 41.479L36.9614 40.6929C36.5924 40.9743 36.2212 41.1069 35.8082 41.1069C35.0239 41.1069 34.4623 40.544 34.4623 39.6695C34.4623 38.795 35.0239 38.2763 35.8082 38.2321C36.2212 38.2321 36.5924 38.3647 36.9614 38.6461L37.4208 37.86C36.9614 37.4902 36.488 37.3553 35.8383 37.3553C34.4043 37.3414 33.4715 38.3182 33.4715 39.6532V39.6556ZM42.4653 39.6556V37.4321H41.4885V37.9949C41.1636 37.5809 40.7042 37.3437 40.0985 37.3437C38.8409 37.3437 37.8803 38.3229 37.8803 39.6718C37.8803 41.0208 38.8571 42 40.0985 42C40.7483 42 41.2077 41.7628 41.4885 41.3488V41.9116H42.4653V39.6579V39.6556ZM38.9012 39.6556C38.9012 38.8694 39.4048 38.2182 40.2471 38.2182C41.0313 38.2182 41.5929 38.8252 41.5929 39.6556C41.5929 40.4417 41.0313 41.0929 40.2471 41.0929C39.4048 41.0487 38.9012 40.4556 38.9012 39.6556ZM27.2622 37.3437C25.9604 37.3437 25.0439 38.2787 25.0439 39.6718C25.0439 41.065 25.9767 42 27.3225 42C27.9722 42 28.6242 41.807 29.1278 41.393L28.6683 40.6952C28.2994 40.9766 27.84 41.1557 27.3666 41.1557C26.761 41.1557 26.1693 40.8743 26.0208 40.0882H29.3041V39.7184C29.3482 38.2647 28.5198 37.346 27.2622 37.346V37.3437ZM27.2622 38.174C27.8678 38.174 28.2831 38.5438 28.3713 39.2416H26.0486C26.153 38.6485 26.5661 38.174 27.2622 38.174ZM51.4151 39.6556V35.6667H50.4382V37.9949C50.1133 37.5809 49.6539 37.3437 49.0483 37.3437C47.7906 37.3437 46.83 38.3229 46.83 39.6718C46.83 41.0208 47.8069 42 49.0483 42C49.698 42 50.1574 41.7628 50.4382 41.3488V41.9116H51.4151V39.6579V39.6556ZM47.8347 39.6556C47.8347 38.8694 48.3382 38.2182 49.1805 38.2182C49.9648 38.2182 50.5264 38.8252 50.5264 39.6556C50.5264 40.4417 49.9648 41.0929 49.1805 41.0929C48.3522 41.0487 47.8347 40.4556 47.8347 39.6556ZM15.3099 39.6556V37.4321H14.333V37.9949C14.0081 37.5809 13.5487 37.3437 12.9431 37.3437C11.6854 37.3437 10.7248 38.3229 10.7248 39.6718C10.7248 41.0208 11.7017 42 12.9431 42C13.5928 42 14.0522 41.7628 14.333 41.3488V41.9116H15.3099V39.6579V39.6556ZM11.7017 39.6556C11.7017 38.8694 12.2052 38.2182 13.0475 38.2182C13.8318 38.2182 14.3933 38.8252 14.3933 39.6556C14.3933 40.4417 13.8318 41.0929 13.0475 41.0929C12.2052 41.0487 11.7017 40.4556 11.7017 39.6556Z" fill="white"/>
<path d="M34.3143 3.57248H19.7168V29.8568H34.3143V3.57248Z" fill="#FF5F00"/>
<path d="M20.6329 16.7228C20.6329 11.385 23.1319 6.6426 26.9791 3.57249C24.1529 1.34899 20.5888 0 16.6836 0C7.46932 0 0 7.47292 0 16.7228C0 25.9726 7.4554 33.4456 16.6836 33.4456C20.5725 33.4456 24.139 32.0966 26.9768 29.8731C23.1319 26.8495 20.6305 22.0606 20.6305 16.7228H20.6329Z" fill="#EB001B"/>
<path d="M54.0002 16.7228C54.0002 25.9587 46.5448 33.4456 37.3167 33.4456C33.4277 33.4456 29.8613 32.0966 27.0234 29.8731C30.9124 26.8053 33.3697 22.0745 33.3697 16.7228C33.3697 11.371 30.8706 6.6426 27.0234 3.57249C29.8473 1.34899 33.4138 0 37.3167 0C46.5472 0 54.0002 7.51711 54.0002 16.7228Z" fill="#F79E1B"/>
</g>
<defs>
<clipPath id="clip0_1370_1469">
<rect width="54" height="42" fill="white"/>
</clipPath>
</defs>
</svg>
