<svg width="72" height="17" viewBox="0 0 72 17" fill="none" xmlns="http://www.w3.org/2000/svg">
<g clip-path="url(#clip0_1370_1457)">
<path d="M72.0002 6.08417C72.0002 7.20505 71.0754 8.11152 69.9366 8.11152C68.7979 8.11152 67.873 7.20293 67.873 6.08417C67.873 4.96541 68.7979 4.05682 69.9366 4.05682C71.0775 4.06956 72.0002 4.97603 72.0002 6.08417Z" fill="white"/>
<path d="M72.0002 12.4252C72.0002 13.5461 71.0754 14.4526 69.9366 14.4526C68.7979 14.4526 67.873 13.544 67.873 12.4252C67.873 11.3064 68.7979 10.3979 69.9366 10.3979C71.0754 10.3979 72.0002 11.3064 72.0002 12.4252Z" fill="white"/>
<path d="M4.88341 6.98002H3.23904V3.12488H4.88341C6.04808 3.12488 6.70712 3.92732 6.70712 5.06943C6.70712 6.30707 5.97461 6.98002 4.88341 6.98002ZM5.24426 0.78971H0V14.2169H3.252V9.31306H5.25506C7.89556 9.31306 9.87486 7.69755 9.87486 4.95055C9.86189 2.58142 8.37526 0.78971 5.2421 0.78971H5.24426ZM26.9408 4.29033L24.7563 10.2195L22.2476 4.29033H19.0086L23.2805 13.7456L21.9494 17H24.9616L30.0848 4.29033H26.9408ZM50.3531 3.88911V4.30095H48.6742V6.42383H50.3531V14.2275H53.4971V6.42595H55.6816V4.30307H53.4971V3.77235C53.4971 2.89985 53.8579 2.27572 54.8281 2.27572C55.1285 2.27572 55.5001 2.33516 55.7638 2.41796V0.19955C55.3316 0.0806693 54.8281 0 54.2642 0C51.7079 0 50.3531 1.53272 50.3531 3.89123V3.88911ZM44.5924 12.0346C44.2921 12.2469 43.8361 12.4231 43.3435 12.4231C42.5505 12.4231 42.0124 11.9752 42.0124 11.2555C42.0124 10.4424 42.6715 9.63999 44.5924 9.9478V12.0346ZM43.9809 4.06531C42.0254 4.06531 40.4761 4.66608 39.5297 5.25624L40.4048 7.0246C40.9817 6.77622 42.1918 6.3283 43.2138 6.3283C43.9463 6.3283 44.6054 6.57667 44.6054 7.34303V8.00325C40.2384 7.69755 38.9765 9.58267 38.9765 11.3277C38.9765 13.0727 40.4415 14.4632 42.3733 14.4632C43.1404 14.4632 43.9701 14.1808 44.5924 13.7902V14.2254H47.7602V7.31756C47.7731 5.06519 46.3211 4.06319 43.9809 4.06319V4.06531ZM15.7674 12.0367C15.467 12.249 15.0111 12.4252 14.5184 12.4252C13.7254 12.4252 13.1874 11.9773 13.1874 11.2576C13.1874 10.4446 13.8464 9.64211 15.7674 9.94992V12.0367ZM15.0348 4.06743C13.0793 4.06743 11.53 4.66821 10.5836 5.25837L11.4587 7.02672C12.0357 6.77835 13.2457 6.33042 14.2678 6.33042C15.0003 6.33042 15.6593 6.5788 15.6593 7.34515V8.00537C11.2794 7.68694 10.0304 9.57418 10.0304 11.3192C10.0304 13.0642 11.4955 14.4547 13.4272 14.4547C14.1943 14.4547 15.024 14.1723 15.6464 13.7817V14.2169H18.8141V7.30907C18.827 5.06943 17.375 4.06743 15.0348 4.06743ZM33.3584 7.09678C33.3584 6.6255 33.8381 6.34316 34.6311 6.34316C35.4241 6.34316 36.336 6.63824 36.9713 6.90996L37.8594 4.86988C37.0318 4.45804 35.7591 4.06743 34.4756 4.06743C32.1246 4.06743 30.2166 5.11613 30.2166 7.21566C30.2166 10.5295 34.9682 9.91596 34.9682 11.3765C34.9682 11.9178 34.4172 12.1896 33.4794 12.1896C32.5416 12.1896 31.619 11.8839 30.8994 11.5293L29.8925 13.5333C31.0809 14.1575 32.4725 14.4525 33.756 14.4525C36.0486 14.4525 38.0409 13.285 38.0409 11.1387C38.0279 7.87375 33.3606 8.41508 33.3606 7.09466L33.3584 7.09678ZM60.9216 6.24763C61.7967 6.24763 62.4817 6.93119 62.6005 8.25162H59.2275C59.3593 6.91846 60.0551 6.24763 60.9194 6.24763H60.9216ZM65.805 9.87775V9.09865C65.805 6.18606 63.7285 4.05257 60.9216 4.05257C58.1147 4.05257 55.9301 6.25612 55.9301 9.31094C55.9301 12.3658 57.9937 14.4504 61.2824 14.4504C62.1943 14.4504 64.018 14.2848 65.4096 13.3423L64.5215 11.4083C63.5729 11.9391 62.6135 12.1747 61.7492 12.1747C61.6779 12.1747 61.6044 12.1747 61.5331 12.162H61.4855C61.4142 12.162 61.3537 12.1492 61.2824 12.1386C61.2695 12.1386 61.2587 12.1386 61.2349 12.1259C61.1744 12.1131 61.1269 12.1131 61.0793 12.1025C61.0556 12.1025 61.0426 12.0898 61.0188 12.0898C60.9583 12.077 60.9108 12.0664 60.8632 12.0431C60.8395 12.0303 60.8027 12.0303 60.779 12.0197C60.7422 12.007 60.7077 11.9964 60.6709 11.9836C60.6342 11.9709 60.5867 11.9476 60.5499 11.9369C60.537 11.9369 60.5262 11.9242 60.5132 11.9242C60.4527 11.8881 60.3814 11.8648 60.3338 11.8308C60.202 11.748 60.081 11.6652 59.973 11.5591C59.9255 11.523 59.8887 11.4763 59.852 11.4296C59.839 11.4168 59.8153 11.3935 59.8045 11.3829C59.7807 11.3595 59.7569 11.3234 59.7439 11.3001C59.7072 11.2534 59.6726 11.2067 59.6359 11.1472C59.4328 10.8182 59.301 10.4042 59.2513 9.88624H65.8028V9.8735L65.805 9.87775Z" fill="white"/>
</g>
<defs>
<clipPath id="clip0_1370_1457">
<rect width="72" height="17" fill="white"/>
</clipPath>
</defs>
</svg>
