<svg width="53" height="33" viewBox="0 0 53 33" fill="none" xmlns="http://www.w3.org/2000/svg">
<path fill-rule="evenodd" clip-rule="evenodd" d="M52.9501 25.3641L52.9655 32.9662H0.103997L0.0332031 0.0368414L2.34786 0.0307007V22.7942C2.34786 24.2065 3.49595 25.361 4.89951 25.361H52.9532L52.9501 25.3641Z" fill="white"/>
<path fill-rule="evenodd" clip-rule="evenodd" d="M20.0801 19.5949L22.4255 5.13974H26.1714L23.826 19.5949H20.0801Z" fill="white"/>
<path fill-rule="evenodd" clip-rule="evenodd" d="M37.4096 5.4959C36.6709 5.20422 35.4982 4.88184 34.0485 4.88184C30.3487 4.88184 27.7447 6.84992 27.7263 9.66235C27.6955 11.7379 29.5915 12.8924 31.0105 13.5832C32.4602 14.2894 32.9527 14.753 32.9527 15.3824C32.9373 16.3526 31.78 16.7978 30.7027 16.7978C29.2068 16.7978 28.4065 16.5675 27.1876 16.0302L26.6951 15.8L26.1719 19.0453C27.0491 19.4445 28.6681 19.7975 30.3487 19.8129C34.2793 19.8129 36.8371 17.8755 36.871 14.8758C36.8864 13.2301 35.883 11.9682 33.7253 10.9396C32.4141 10.2795 31.6138 9.83122 31.6138 9.15575C31.6292 8.54168 32.294 7.90919 33.7714 7.90919C34.9903 7.87849 35.8829 8.17017 36.5632 8.46185L36.9018 8.61537L37.4096 5.49283V5.4959Z" fill="white"/>
<path fill-rule="evenodd" clip-rule="evenodd" d="M42.3877 14.4736C42.6955 13.6446 43.8836 10.4299 43.8836 10.4299C43.8682 10.4606 44.1914 9.58559 44.376 9.04521L44.6377 10.2918C44.6377 10.2918 45.3456 13.752 45.4995 14.4736H42.3846H42.3877ZM47.0139 5.13974H44.1144C43.2218 5.13974 42.5416 5.40072 42.1568 6.34024L36.5918 19.5949H40.5224C40.5224 19.5949 41.1688 17.811 41.3073 17.4272H46.1182C46.2259 17.9338 46.5645 19.5949 46.5645 19.5949H50.0334L47.0108 5.14281L47.0139 5.13974Z" fill="white"/>
<path fill-rule="evenodd" clip-rule="evenodd" d="M16.9545 5.13974L13.2855 14.9955L12.8853 12.9967C12.2082 10.6909 10.0782 8.18552 7.70508 6.93896L11.0662 19.5765H15.0276L20.9158 5.13974H16.9545Z" fill="white"/>
<path fill-rule="evenodd" clip-rule="evenodd" d="M9.87651 5.13974H3.84672L3.78516 5.43142C8.48833 6.63192 11.6002 9.52111 12.8806 12.9967L11.5694 6.35559C11.3539 5.43449 10.6922 5.17044 9.87343 5.13974H9.87651Z" fill="white"/>
</svg>
