<svg width="200" height="200" viewBox="0 0 200 200" fill="none" xmlns="http://www.w3.org/2000/svg">
<g clip-path="url(#clip0_2_36)">
<path d="M144.77 53.57L123.77 53.42C123.17 53.43 122.61 53.66 122.2 54.07C121.88 54.38 121.67 54.75 121.58 55.16C121.52 56.22 121.75 56.77 122.16 57.19C122.57 57.61 123.13 57.84 123.71 57.85L138.73 57.96L58.0001 138.43L57.6601 123.23C57.6601 122.64 57.4401 122.08 57.0301 121.66C56.6201 121.24 56.0601 121.01 55.4701 121C54.4401 120.99 53.5301 121.72 53.3001 122.72L53.0901 144.19C53.0901 144.49 53.1401 144.77 53.2501 145.05C53.4601 145.58 53.9001 146.03 54.4301 146.25C54.6201 146.37 54.9001 146.43 55.2201 146.43L76.2201 146.58C76.8201 146.57 77.3801 146.34 77.7901 145.94C78.1101 145.62 78.3201 145.25 78.4101 144.84C78.4701 143.78 78.2401 143.23 77.8301 142.81C77.4201 142.39 76.8601 142.16 76.2801 142.15L61.2601 142.04L142 61.57L142.34 76.78C142.33 77.37 142.56 77.92 142.97 78.35C143.38 78.77 143.93 79 144.52 79C145.55 79.01 146.47 78.28 146.69 77.28L146.9 55.81C146.9 55.51 146.85 55.22 146.73 54.94C146.52 54.41 146.08 53.97 145.55 53.74C145.37 53.64 145.08 53.58 144.77 53.57Z" fill="#242421"/>
<path d="M170.08 170.08H29.92V29.92H170.07V170.08H170.08ZM34.55 165.45H165.45V34.55H34.55V165.45Z" fill="#242421"/>
</g>
<defs>
<clipPath id="clip0_2_36">
<rect width="200" height="200" fill="white"/>
</clipPath>
</defs>
</svg>
