<svg width="16" height="17" viewBox="0 0 16 17" fill="none" xmlns="http://www.w3.org/2000/svg">
<path d="M14.9206 14.2604C13.8965 12.4831 12.3183 11.2087 10.4766 10.6045C11.3876 10.0601 12.0954 9.23053 12.4913 8.2432C12.8872 7.25588 12.9493 6.16539 12.668 5.13921C12.3868 4.11303 11.7778 3.2079 10.9345 2.56281C10.0912 1.91773 9.06024 1.56836 8 1.56836C6.93976 1.56836 5.90884 1.91773 5.06554 2.56281C4.22225 3.2079 3.61321 4.11303 3.33196 5.13921C3.05072 6.16539 3.11281 7.25588 3.50871 8.2432C3.90461 9.23053 4.61242 10.0601 5.52345 10.6045C3.68167 11.208 2.10348 12.4824 1.07937 14.2604C1.04182 14.3219 1.0169 14.3903 1.00611 14.4615C0.995314 14.5328 0.998852 14.6056 1.01652 14.6755C1.03418 14.7454 1.06561 14.811 1.10895 14.8685C1.1523 14.926 1.20667 14.9742 1.26888 15.0103C1.33108 15.0464 1.39985 15.0696 1.47113 15.0785C1.54241 15.0875 1.61476 15.082 1.6839 15.0624C1.75304 15.0429 1.81758 15.0096 1.8737 14.9646C1.92983 14.9196 1.9764 14.8638 2.01068 14.8004C3.27754 12.6026 5.51672 11.2903 8 11.2903C10.4833 11.2903 12.7225 12.6026 13.9893 14.8004C14.0236 14.8638 14.0702 14.9196 14.1263 14.9646C14.1824 15.0096 14.247 15.0429 14.3161 15.0624C14.3852 15.082 14.4576 15.0875 14.5289 15.0785C14.6001 15.0696 14.6689 15.0464 14.7311 15.0103C14.7933 14.9742 14.8477 14.926 14.891 14.8685C14.9344 14.811 14.9658 14.7454 14.9835 14.6755C15.0011 14.6056 15.0047 14.5328 14.9939 14.4615C14.9831 14.3903 14.9582 14.3219 14.9206 14.2604ZM4.2344 6.43027C4.2344 5.68264 4.45525 4.95181 4.86902 4.33018C5.28279 3.70855 5.8709 3.22405 6.55897 2.93795C7.24704 2.65185 8.00418 2.57699 8.73463 2.72284C9.46509 2.8687 10.1361 3.22871 10.6627 3.75736C11.1893 4.28601 11.5479 4.95956 11.6932 5.69281C11.8385 6.42607 11.764 7.18612 11.479 7.87683C11.1939 8.56755 10.7113 9.15791 10.0921 9.57327C9.4728 9.98862 8.74476 10.2103 8 10.2103C7.00163 10.2092 6.04446 9.81065 5.3385 9.10198C4.63255 8.39332 4.23547 7.43247 4.2344 6.43027Z" fill="#F2F0E8"/>
</svg>
