<svg width="200" height="200" viewBox="0 0 200 200" fill="none" xmlns="http://www.w3.org/2000/svg">
<g clip-path="url(#clip0_2_41)">
<path d="M162.46 151.57C141.93 151.57 125.24 134.87 125.24 114.34C125.24 101.88 131.46 90.3 141.88 83.35L132.4 66.2L87.29 120.44L86.48 121.06L85.81 121.22L74.55 120.09C71.29 138.43 55.86 151.57 37.54 151.57C17.02 151.57 0.320007 134.87 0.320007 114.34C0.320007 93.82 17.02 77.12 37.54 77.12C52.58 77.12 66.06 86.1 71.89 100.01L76.27 98.72L61.31 52.98L53.68 52.78C52.48 52.78 51.51 51.8 51.51 50.6C51.51 49.52 52.32 48.59 53.39 48.44L76.5 48.42C77.7 48.42 78.67 49.39 78.67 50.59C78.67 51.67 77.86 52.6 76.79 52.75L66.21 52.77L75.04 80.44L127.97 58.72L124.73 51.54L124.52 50.92L124.55 50.12L124.78 49.52L125.19 49L125.7 48.65L126.29 48.45L140.37 48.42C141.57 48.42 142.54 49.39 142.54 50.59C142.54 51.67 141.73 52.6 140.66 52.75L130.66 52.77L145.93 80.73C151.43 78.37 156.86 77.11 162.46 77.11C182.99 77.11 199.68 93.81 199.68 114.33C199.69 134.87 182.99 151.57 162.46 151.57ZM144.02 87.18C135 93.32 129.61 103.47 129.61 114.34C129.61 132.45 144.35 147.19 162.46 147.19C180.57 147.19 195.31 132.45 195.31 114.34C195.31 96.23 180.57 81.49 162.46 81.49C157.73 81.49 153.04 82.57 148.52 84.71L164.41 113.52C164.94 114.58 164.5 115.89 163.43 116.43C163.13 116.58 162.8 116.66 162.46 116.66C161.74 116.66 161.07 116.31 160.67 115.72L144.28 87.02L144.02 87.18ZM37.53 81.49C19.42 81.49 4.68001 96.23 4.68001 114.34C4.68001 132.45 19.42 147.19 37.53 147.19C53.51 147.19 67.09 135.72 69.82 119.92L39.78 116.64C38.7 116.55 37.89 115.97 37.57 115.11C37.36 114.54 37.39 113.93 37.65 113.39C37.91 112.85 38.36 112.43 38.93 112.23L67.59 101.86C62.56 89.33 50.7 81.49 37.53 81.49ZM73.65 104.44C74.33 108 74.76 111.21 74.76 114.34V114.6L74.96 115.78L82.05 116.49L77.94 102.89L73.65 104.44ZM50.57 112.8L70 115.27L70.38 114.34C70.38 111.85 70.03 109.31 69.28 106.36L69.2 106.05L50.57 112.8ZM82.29 101.31L86.27 114.15L92.07 107.88L89.27 98.77L82.29 101.31ZM91.69 93.86L92.37 94.38L92.82 95.11L95.43 103.18L126.47 66.63L125.37 64.78L76.77 84.79L80.51 96.86L89.94 93.76L90.82 93.64L91.69 93.86Z" fill="#242421"/>
</g>
<defs>
<clipPath id="clip0_2_41">
<rect width="200" height="200" fill="white"/>
</clipPath>
</defs>
</svg>
