<svg width="200" height="200" viewBox="0 0 200 200" fill="none" xmlns="http://www.w3.org/2000/svg">
<g clip-path="url(#clip0_3_22)">
<path d="M131.82 156.49C131.15 156.49 130.51 156.17 130.05 155.62C126.04 150.58 90.8301 105.7 90.8301 84.51C90.8301 61.9 109.22 43.51 131.83 43.51C154.44 43.51 172.83 61.9 172.83 84.51C172.83 105.69 137.65 150.54 133.64 155.58C133.14 156.16 132.5 156.49 131.82 156.49ZM131.82 48.05C111.72 48.05 95.3601 64.4 95.3601 84.51C95.3601 102.01 123.08 139.24 131.57 150.23L131.79 150.52L132.01 150.23C135.72 145.49 168.27 103.36 168.27 84.51C168.28 64.4 151.92 48.05 131.82 48.05ZM131.82 102.27C122.03 102.27 114.06 94.3 114.06 84.51C114.06 74.72 122.03 66.75 131.82 66.75C141.61 66.75 149.58 74.72 149.58 84.51C149.58 94.3 141.62 102.27 131.82 102.27ZM131.82 71.29C124.53 71.29 118.6 77.22 118.6 84.51C118.6 91.8 124.53 97.73 131.82 97.73C139.11 97.73 145.04 91.8 145.04 84.51C145.04 77.22 139.11 71.29 131.82 71.29Z" fill="#F2F0E8"/>
<path d="M29.4501 156.48C28.1801 156.48 27.1801 155.48 27.1801 154.21C27.1801 152.94 28.1801 151.94 29.4501 151.94H41.4501C42.7201 151.94 43.7201 152.94 43.7201 154.21C43.7201 155.48 42.7201 156.48 41.4501 156.48H29.4501Z" fill="#F2F0E8"/>
<path d="M53.8401 156.48C52.5701 156.48 51.5701 155.48 51.5701 154.21C51.5701 152.94 52.5701 151.94 53.8401 151.94H65.8401C67.1101 151.94 68.1101 152.94 68.1101 154.21C68.1101 155.48 67.1101 156.48 65.8401 156.48H53.8401Z" fill="#F2F0E8"/>
<path d="M78.2201 156.48C76.9501 156.48 75.9501 155.48 75.9501 154.21C75.9501 152.94 76.9501 151.94 78.2201 151.94H90.2201C91.4901 151.94 92.4901 152.94 92.4901 154.21C92.4901 155.48 91.4901 156.48 90.2201 156.48H78.2201Z" fill="#F2F0E8"/>
<path d="M102.61 156.48C101.34 156.48 100.34 155.48 100.34 154.21C100.34 152.94 101.34 151.94 102.61 151.94H114.61C115.88 151.94 116.88 152.94 116.88 154.21C116.88 155.48 115.88 156.48 114.61 156.48H102.61Z" fill="#F2F0E8"/>
</g>
<defs>
<clipPath id="clip0_3_22">
<rect width="200" height="200" fill="white"/>
</clipPath>
</defs>
</svg>
