<svg width="200" height="200" viewBox="0 0 200 200" fill="none" xmlns="http://www.w3.org/2000/svg">
<g clip-path="url(#clip0_3_46)">
<path d="M172.4 149.21H27.6C26.31 149.21 25.27 148.17 25.27 146.88V53.12C25.27 52.26 25.74 51.48 26.48 51.07C27.23 50.66 28.15 50.7 28.86 51.16L173.67 144.92C174.54 145.48 174.94 146.55 174.64 147.54C174.35 148.53 173.44 149.21 172.4 149.21ZM29.93 144.54H164.51L29.93 57.41V144.54Z" fill="#F2F0E8"/>
<path d="M87.85 53.48C87.09 53.48 86.4 53.86 85.99 54.49C85.67 54.98 85.56 55.57 85.69 56.15C85.81 56.73 86.15 57.22 86.65 57.54L119.02 78.5L104.25 82.12C103.67 82.24 103.18 82.58 102.86 83.08C102.54 83.57 102.43 84.16 102.56 84.74C102.78 85.75 103.68 86.48 104.71 86.48L125.71 82.04C126 81.98 126.27 81.86 126.52 81.69C126.99 81.37 127.33 80.84 127.43 80.28C127.5 80.07 127.5 79.78 127.43 79.47L123.03 58.93C122.89 58.35 122.55 57.85 122.06 57.54C121.68 57.3 121.28 57.17 120.86 57.17C119.82 57.34 119.33 57.68 119 58.18C118.68 58.67 118.57 59.26 118.7 59.84L121.84 74.52L89.05 53.82C88.69 53.6 88.27 53.48 87.85 53.48Z" fill="#F2F0E8"/>
</g>
<defs>
<clipPath id="clip0_3_46">
<rect width="200" height="200" fill="white"/>
</clipPath>
</defs>
</svg>
