<svg width="200" height="200" viewBox="0 0 200 200" fill="none" xmlns="http://www.w3.org/2000/svg">
<g clip-path="url(#clip0_3_4)">
<path d="M14.07 156.25C13.21 156.25 12.34 155.76 12 155.09C11.57 154.23 11.57 153.28 12 152.41L39.82 104.04C40.32 103.25 41.12 102.74 41.96 102.74C42.82 102.74 43.69 103.23 44.03 103.9L54.48 122.2L98.83 45.02C99.33 44.23 100.12 43.73 100.97 43.73C101.83 43.73 102.7 44.22 103.04 44.89L130.3 91.89L139.45 75.73C139.94 74.95 140.74 74.45 141.58 74.45C142.44 74.45 143.31 74.94 143.65 75.61L187.99 152.55C188.4 153.39 188.44 154.22 188.04 154.87C187.49 155.75 186.69 156.25 185.85 156.25H14.07ZM18.14 151.26H181.96L141.76 81.82L132.6 97.98C132.11 98.76 131.31 99.26 130.47 99.26C129.61 99.26 128.74 98.77 128.4 98.1L101.16 51.14L56.63 128.27C56.13 129.07 55.33 129.57 54.48 129.57C53.62 129.57 52.75 129.08 52.41 128.41L41.97 110.12L18.14 151.26Z" fill="#F2F0E8"/>
</g>
<defs>
<clipPath id="clip0_3_4">
<rect width="200" height="200" fill="white"/>
</clipPath>
</defs>
</svg>
