<svg width="200" height="200" viewBox="0 0 200 200" fill="none" xmlns="http://www.w3.org/2000/svg">
<path d="M178.55 117.8L160.97 75.97V67.51C160.97 46.59 144.06 29.68 123.14 29.68H76.86C55.94 29.68 39.03 46.59 39.03 67.51V75.97L21.45 117.8C21.23 118.02 21.23 118.47 21.23 118.69V168.09C21.23 169.42 22.12 170.32 23.46 170.32C24.79 170.32 25.69 169.43 25.69 168.09V152.07H174.34V168.09C174.34 169.42 175.23 170.32 176.57 170.32C177.9 170.32 178.8 169.43 178.8 168.09V151.4C178.8 151.18 178.8 150.73 178.58 150.51C178.58 150.29 178.8 150.06 178.8 149.62V118.47C178.77 118.25 178.77 118.02 178.55 117.8ZM41.92 80.86H63.73V81.53C63.73 87.76 68.63 92.66 74.86 92.66H125.15C131.38 92.66 136.28 87.76 136.28 81.53V80.86H158.09L173 116.46H26.79L41.92 80.86ZM125.14 59.94C128.92 59.94 131.82 62.83 131.82 66.62V81.53C131.82 85.31 128.93 88.21 125.14 88.21H102.22V59.95L125.14 59.94ZM97.77 88.21H74.85C71.07 88.21 68.17 85.32 68.17 81.53V66.62C68.17 62.84 71.06 59.94 74.85 59.94H97.77V88.21ZM76.85 34.13H123.14C141.61 34.13 156.52 49.04 156.52 67.51V76.41H136.27V66.62C136.27 60.39 131.37 55.49 125.14 55.49H74.85C68.62 55.49 63.72 60.39 63.72 66.62V76.19H43.48V67.29C43.48 49.04 58.61 34.13 76.85 34.13ZM25.67 120.92H174.32V147.62H25.67V120.92Z" fill="#242421"/>
</svg>
