<svg width="200" height="200" viewBox="0 0 200 200" fill="none" xmlns="http://www.w3.org/2000/svg">
<g clip-path="url(#clip0_3_41)">
<path d="M165.19 34.65L123.92 59.77L76.96 34.61H76.69C76.48 34.53 76.26 34.49 76.04 34.48C75.8 34.49 75.56 34.54 75.33 34.63H74.97L32.59 60.49C31.97 60.87 31.59 61.54 31.59 62.27V163.55C31.59 164.31 32 165 32.66 165.37C33.32 165.74 34.13 165.72 34.77 165.33L76.04 140.21L123.03 165.4H123.3C123.76 165.59 124.28 165.59 124.74 165.4H125.12L167.41 139.56C168.03 139.18 168.41 138.51 168.41 137.78V36.45C168.41 35.69 168 35 167.34 34.63C166.68 34.26 165.88 34.28 165.23 34.67L165.19 34.65ZM78.07 39.95L121.92 63.53V160.05L78.07 136.47V39.95ZM35.77 63.46L73.88 40.18V136.49L35.77 159.81V63.46ZM164.18 136.54L126.1 159.82V63.51L164.21 40.23L164.18 136.54Z" fill="#F2F0E8"/>
</g>
<defs>
<clipPath id="clip0_3_41">
<rect width="200" height="200" fill="white"/>
</clipPath>
</defs>
</svg>
