<svg width="200" height="200" viewBox="0 0 200 200" fill="none" xmlns="http://www.w3.org/2000/svg">
<g clip-path="url(#clip0_1_14)">
<path d="M172.4 149.21H27.6C26.57 149.21 25.66 148.53 25.36 147.54C25.06 146.55 25.46 145.48 26.33 144.92L171.14 51.16C171.85 50.69 172.77 50.66 173.52 51.07C174.27 51.48 174.73 52.26 174.73 53.12V146.88C174.74 148.17 173.69 149.21 172.4 149.21ZM35.49 144.55H170.07V57.41L35.49 144.55Z" fill="#242421"/>
<path d="M66.79 86.13C66.03 86.13 65.34 85.75 64.93 85.12C64.61 84.63 64.5 84.04 64.63 83.46C64.75 82.88 65.09 82.39 65.59 82.07L97.95 61.1L83.18 57.48C82.6 57.36 82.11 57.02 81.79 56.52C81.47 56.03 81.36 55.44 81.49 54.86C81.71 53.85 82.61 53.12 83.64 53.12L104.64 57.56C104.93 57.62 105.2 57.74 105.45 57.91C105.92 58.23 106.26 58.76 106.36 59.32C106.43 59.53 106.43 59.82 106.36 60.13L101.96 80.67C101.82 81.25 101.48 81.75 100.99 82.06C100.61 82.3 100.21 82.43 99.79 82.43C98.75 82.26 98.26 81.92 97.93 81.42C97.61 80.93 97.5 80.34 97.63 79.76L100.77 65.08L67.98 85.78C67.63 86.01 67.21 86.13 66.79 86.13Z" fill="#242421"/>
</g>
<defs>
<clipPath id="clip0_1_14">
<rect width="200" height="200" fill="white"/>
</clipPath>
</defs>
</svg>
