<svg width="200" height="200" viewBox="0 0 200 200" fill="none" xmlns="http://www.w3.org/2000/svg">
<g clip-path="url(#clip0_2_44)">
<path d="M176.87 65.61L152.87 41.61C148.82 37.55 141.15 34.37 135.41 34.37H64.59C58.86 34.37 51.19 37.55 47.13 41.61L23.13 65.61C22.77 65.97 22.57 66.46 22.57 66.97C22.57 67.48 22.77 67.96 23.13 68.33L46.73 91.93C47.09 92.29 47.57 92.49 48.09 92.49C48.6 92.49 49.09 92.29 49.45 91.92L57.97 84.47V163.72C57.97 164.78 58.83 165.64 59.89 165.64H140.12C141.18 165.64 142.04 164.78 142.04 163.72L142.79 84.16L150.56 91.93C150.92 92.29 151.4 92.49 151.92 92.49C152.43 92.49 152.92 92.29 153.28 91.93L176.88 68.33C177.61 67.57 177.61 66.36 176.87 65.61ZM100 45.27C93.53 45.27 87.77 42.46 85.08 38.33L114.97 38.25C112.31 42.43 106.54 45.27 100 45.27ZM59.87 76.84C59.51 76.84 59 76.94 58.53 77.41L47.78 87.54L27.52 66.65L49.85 44.32C53.17 41.01 59.92 38.21 64.6 38.21L70.94 38.36L80.27 38.34C82.82 44.47 89.66 48.77 97.86 49.43V161.56L61.82 161.35V78.76C61.81 77.56 60.82 76.84 59.87 76.84ZM151.6 87.54L141.47 77.41C141 76.94 140.48 76.84 140.13 76.84C139.18 76.84 138.19 77.56 138.19 78.77L137.75 161.8L102.15 161.59V49.42C110.32 48.74 117.26 44.34 119.77 38.24L129.39 38.21H135.4C140.08 38.21 146.83 41.01 150.15 44.32L172.48 67.28L151.6 87.54Z" fill="#242421"/>
</g>
<defs>
<clipPath id="clip0_2_44">
<rect width="200" height="200" fill="white"/>
</clipPath>
</defs>
</svg>
