<svg width="200" height="200" viewBox="0 0 200 200" fill="none" xmlns="http://www.w3.org/2000/svg">
<g clip-path="url(#clip0_1_25)">
<path d="M32.17 170.03C31.58 170.03 31.02 169.8 30.59 169.39C29.75 168.53 29.76 167.12 30.61 166.25L76.1 121.12L54.31 99.33C48.08 93.12 43.71 85.31 41.66 76.76C39.62 68.2 40 59.26 42.75 50.91L45.2 43.23C45.44 42.51 46.05 41.94 46.8 41.76C46.8 41.76 47.01 41.76 47.13 41.76C48.17 41.76 48.6 42.04 48.91 42.35L101.89 95.16L113.28 83.77L112.64 82.91C109.35 78.49 107.76 73.03 108.15 67.54C108.54 62.05 110.9 56.87 114.79 52.97L137.45 30.31C137.73 30.11 138.21 29.97 138.67 29.97C139.27 29.97 139.84 30.2 140.26 30.63C141.05 31.42 141.14 32.68 140.47 33.57L117.93 56.1C114.94 59.09 113.05 63.05 112.61 67.25C112.17 71.45 113.2 75.72 115.5 79.26L116.33 80.54L151.92 44.95C152.2 44.75 152.68 44.61 153.14 44.61C153.74 44.61 154.31 44.84 154.73 45.27C155.52 46.06 155.6 47.32 154.94 48.21L119.47 83.84L120.74 84.67C123.75 86.63 127.23 87.66 130.82 87.66C131.46 87.66 132.1 87.63 132.74 87.56C136.94 87.12 140.9 85.23 143.89 82.24L166.55 59.58C166.83 59.38 167.31 59.24 167.77 59.24C168.37 59.24 168.94 59.47 169.36 59.9C170.15 60.69 170.24 61.95 169.57 62.84L147.02 85.37C143.12 89.25 137.94 91.61 132.45 92C131.9 92.04 131.35 92.06 130.8 92.06C125.89 92.06 121.02 90.45 117.08 87.52L116.23 86.88L104.84 98.27L121.93 115.35L168.64 162.24C169.21 163.02 169.08 164.29 168.32 165.05C167.89 165.48 167.33 165.71 166.73 165.71C166.24 165.71 165.77 165.55 165.38 165.26L120.19 120.05L99.27 141.15C98.85 141.56 98.3 141.78 97.7 141.78C97.11 141.78 96.55 141.55 96.12 141.14L79.05 124.06L33.74 169.4C33.32 169.81 32.76 170.03 32.17 170.03ZM46.85 52.25C44.38 59.8 44.07 67.89 45.94 75.63C47.81 83.37 51.79 90.42 57.45 96.02L97.71 136.28L117.06 116.93L48.15 48.02L46.85 52.25Z" fill="#242421"/>
</g>
<defs>
<clipPath id="clip0_1_25">
<rect width="200" height="200" fill="white"/>
</clipPath>
</defs>
</svg>
