<svg xmlns="http://www.w3.org/2000/svg" width="620.001" height="100" viewBox="0 0 620.001 100"><path d="M73.333,80v6.667H66.668V80H60v20h6.668V93.333h6.666V100H80V80Zm320,0v6.667h-6.666V80H380v20h6.667V93.333h6.666V100H400V80Zm160,0v6.667h-6.667V80H540v20h6.667V93.333h6.667V100H560V80ZM226.668,60v6.666H220v6.668h6.666V66.668h6.667v6.668h-6.666V80h6.667V73.333H240V66.667h-6.667V60Zm146.667,0v6.666h-6.667V60H360V80h-6.667v6.667h-6.667V80h6.667V73.335h-6.666V66.668h6.667v6.666H360V66.666h-6.667V60h-6.667v6.667H340v6.667h-6.667V66.666H340V60H320v6.666h6.668v6.668H320V80h20V73.333h6.667V80H340v20h6.667V93.333h6.667V100H360V80h6.667V73.333h6.667V80H380V60Zm13.334,0v6.666H380v6.668h6.667V66.668h6.667v6.668h-6.666V80h6.666V73.333H400V66.667h-6.667V60Zm40,0v6.667H420v6.667h-6.667V66.666H420V60H400v6.666h6.668v6.668H400V80h20V73.333h6.667V80H420v20h6.667V93.333h6.666V100H440V80h-6.667v6.667h-6.666V80h6.666V73.335h-6.665V66.668h6.666v6.666H440V66.666h-6.667V60Zm120,0v6.666H540v6.668h6.667V66.668h6.666v6.668h-6.666V80h6.667V73.333H560V66.667h-6.667V60Zm40,0v6.667H580v6.667h-6.665V66.666H580V60H560v6.666h6.667v6.668H560V80h20l0-6.667h6.667V80h6.667V73.335h-6.666V66.668h6.666v6.666H600V66.666h-6.666V60Zm26.667,0v6.666h-6.667V60H600V80h-6.667v6.667h-6.667V80H580v20h6.668V93.333h6.667V100H600V80h6.667V73.333h6.667V80H620V60ZM26.668,60v6.667H20v6.667H13.333V66.666H20V60ZM20,40v6.667h6.667l0,6.667H20V60H0v6.666H6.668v6.668H0V80H20V73.333h6.668V66.668h6.667v6.666H40V66.666H33.333V60H40V53.333H33.333V46.667H40V40Zm40,0v6.667h6.668v6.667H60V60H53.333v6.666H46.667V60H40V80H33.333v6.667H26.668V80h6.666V73.335H26.668V80H20v20h6.668V93.333h6.666V100H40V80h6.667V73.333h6.667V80H60V60h6.668v6.666H60v6.668h6.667V66.668h6.667v6.668H66.668V80h6.666V73.333H80V66.667H73.333V60H80V53.333H73.333V46.667H80V40Zm46.668,20v6.667H100v6.667H93.333V66.666H100V60ZM100,40v6.667h6.668v6.667H100V60H80v6.666h6.668v6.668H80V80h20V73.333h6.668V80H100v20h6.668V93.333h6.667V100H120V80h-6.667v6.667h-6.667V80h6.665V73.335h-6.664V66.668h6.666v6.666H120V66.666h-6.668V60H120V53.333h-6.667V46.667H120V40Zm46.668,26.666H140V60h6.667ZM140,40v6.667h6.667v6.667H140V60h-6.668v6.666h-6.666V60H120V80h6.667V73.333h6.666V80H140V73.333h6.666V66.668h6.667v6.668h-6.666V80h6.667V73.333H160V66.667h-6.666V60H160V53.333h-6.666V46.667H160V40Zm46.667,20v6.667H180v6.667h-6.666V66.666H180V60ZM180,40v6.667h6.668v6.667H180V60H160v6.666h6.668v6.668H160V80h-6.666v6.667h-6.667V80H140v20h6.667V93.333h6.667V100H160V80h20V73.333h6.668V80H180v20h6.668V93.333h6.667V100H200V80h6.668V73.333h6.667V80H220V60h-6.667v6.666h-6.667V60H200V80h-6.666v6.667h-6.667V80h6.667V73.335h-6.666V66.668h6.667v6.666H200V66.666h-6.666V60H200V53.333h-6.666V46.667H200V40Zm40,0v6.667h6.667v6.667H220V60h20V53.333h-6.667V46.667H240V40Zm40,0v6.667h6.667v6.667H260V60h20V53.333h-6.667V46.667H280V40Zm46.667,26.666H300V60h6.666ZM300,40v6.667h6.667v6.667H300V60h-6.667v6.666h-6.667V60H280v6.666h-6.667V60h-6.667v6.667H260v6.667h-6.666V66.666H260V60H240v6.666h6.667v6.668H240V80h-6.667v6.667h-6.667V80H220v20h6.667V93.333h6.667V100H240V80h20V73.333h6.667V80h6.667V73.335h-6.666V66.668h6.667v6.666H280V80h-6.667v6.667h-6.667V80H260v20h6.667V93.333h6.667V100H280V80h6.667V73.333h6.667V80H300V73.333h6.667V66.668h6.666v6.668h-6.666V80H300v20h6.667V93.333h6.667V100H320V80h-6.667v6.667h-6.667V80h6.667V73.333H320V66.667h-6.667V60H320V53.333h-6.667V46.667H320V40Zm40,0v6.667h6.667v6.667H340V60h20V53.333h-6.667V46.667H360V40Zm40,0v6.667h6.667v6.667H380V60h20V53.333h-6.667V46.667H400V40Zm40,0v6.667h6.667v6.667H420V60h20V53.333h-6.667V46.667H440V40Zm46.667,26.666H460V60h6.667ZM460,40v6.667h6.667v6.667H460V60h-6.666v6.666h-6.666V60H440V80h6.667V73.333h6.666V80H460V73.333h6.667V66.668h6.667v6.668h-6.667V80h6.667V73.333H480V66.667h-6.667V60H480V53.333h-6.667V46.667H480V40Zm46.668,26.668h6.666v6.666H520V80h-6.666v6.667h-6.666V80h6.666V73.335h-6.666Zm0-6.668v6.667H500v6.667h-6.666V66.666H500V60ZM500,40v6.667h6.669v6.667H500V60H480v6.666h6.667v6.668H480V80h-6.667v6.667h-6.667V80H460v20h6.667V93.333h6.667V100H480V80h20V73.333h6.669V80H500v20h6.669V93.333h6.666V100H520V80h6.668V73.333h6.666V80H540V60h-6.666v6.666h-6.666V60H520v6.666h-6.666V60H520V53.333h-6.666V46.667H520V40Zm40,0v6.667h6.667v6.667H540V60h20V53.333h-6.666V46.667H560V40Zm40,0v6.667h6.668v6.667H580V60h20V53.333h-6.666V46.667H600V40ZM26.668,26.666ZM613.335,20v6.666h-6.667V20H600V40h6.667V33.333h6.667V40H620V20Zm-600,6.666H20v6.667H13.333Zm240,0H260v6.668h-6.666Zm80,0H340v6.667h-6.667Zm80,0H420v6.667h-6.667ZM66.668,20v6.666h6.666v6.667H66.667V26.666H60V20Zm0-6.667h6.666V20H66.668Zm80,6.667v6.666h6.666v6.667h-6.667V26.666H140V20Zm0-6.667h6.667V20h-6.667Zm40,6.667v6.666H180V20Zm0-6.667h6.666V20h-6.666Zm80,6.667v6.666H260V20Zm0-6.667h6.667V20h-6.667Zm40,6.667v6.666h6.666v6.667h-6.666V26.666H300V20Zm0-6.667h6.667V20h-6.667Zm40,6.667v6.666H340V20Zm0-6.667h6.667V20h-6.667Zm40,6.667v6.666h6.666v6.667h-6.667V26.666H380V20Zm0-6.667h6.666V20h-6.666Zm40,6.667v6.666H420V20Zm0-6.667h6.666V20h-6.666Zm40,6.667v6.666h6.667v6.667h-6.667V26.666H460V20Zm0-6.667h6.667V20h-6.667Zm40,6.667v6.666H500V20Zm0-6.667h6.666V20h-6.666Zm40,6.667v6.666h6.666v6.667h-6.666V26.666H540V20Zm0-6.667h6.667V20h-6.667Zm40,6.667v6.666H580L580,20Zm0-6.667h6.667V20h-6.667ZM593.335,0V6.666h-6.667V0H580V20H560v6.666h-6.667V20H560V0h-6.666V6.666h-6.667V0H540V20h-6.666v6.666h-6.666V20H520v6.666h-6.666v6.667h-6.666V26.666h6.666V20H520V0h-6.666V6.666h-6.666V0H500V20H480v6.666h-6.667V20H480V0h-6.667V6.666h-6.667V0H460V20h-6.666v6.666h-6.666V20H440v6.666h-6.666v6.667h-6.666V26.666h6.665V20H440V0h-6.667V6.666h-6.666V0H420V20H400v6.666h-6.667V20H400V0h-6.667V6.666h-6.666V0H380V20h-6.667v6.666h-6.667V20H360v6.666h-6.666v6.667h-6.667V26.666h6.666V20H360V0h-6.667V6.666h-6.667V0H340V20H320v6.666h-6.667V20H320V0h-6.667V6.666h-6.667V0H300V20h-6.667v6.666h-6.667V20H280v6.666h-6.666v6.667h-6.667V26.666h6.666V20H280V0h-6.667V6.666h-6.667V0H260V20H240v6.666h-6.667V20H240V0h-6.667V6.666h-6.667V0H220V20h-6.667v6.666h-6.667V20H200v6.666h-6.665v6.667h-6.667V26.666h6.666V20H200V0h-6.666V6.666h-6.667V0H180V20H160v6.666h-6.666V20H160V0h-6.666V6.666h-6.667V0H140V20h-6.668v6.666h-6.666V20H120v6.666h-6.667v6.667h-6.666V26.666h6.664V20h-6.665v6.666H100V20h6.668V13.333h6.667V20H120V0h-6.667V6.666h-6.667V0H100V20H80v6.666H73.333V20H80V0H73.333V6.666H66.668V0H60V20H53.333v6.666H46.667V20H40v6.666H33.334v6.667H26.668V26.666H20V20h6.668V13.333h6.666V20H26.668v6.666h6.666V20H40V0H33.333V6.666H26.668V0H20V20H0v6.666H6.668v6.668H0V40H20V33.333h6.668V40h6.666V33.333H40V40h6.667V33.333h6.667V40H60V33.333h6.668V40h6.666V33.333H80V26.666h6.668v6.668H80V40h20V33.333H93.333V26.666H100v6.668h6.668V40h6.665V33.333H120V40h6.667V33.333h6.666V40H140V33.333h6.667V40h6.667V33.333H160V26.666h6.668v6.668H160V40h20V33.333h-6.666V26.666H180v6.668h6.668V40h6.667V33.333H200V40h6.668V33.333h6.667V40H220V20h6.667V13.333h6.667V20h-6.667v6.666h6.666v6.667h-6.667V26.666H220v6.668h6.667V40h6.667V33.333H240V26.666h6.667v6.668H240V40h20V33.333h6.667V40h6.667V33.333H280V40h6.667V33.333h6.667V40H300V33.333h6.667V40h6.667V33.333H320V26.666h6.668v6.668H320V40h20V33.333h6.667V40h6.667V33.333H360V40h6.667V33.333h6.667V40H380V33.333h6.667V40h6.666V33.333H400V26.666h6.668v6.668H400V40h20V33.333h6.667V40h6.666V33.333H440V40h6.667V33.333h6.666V40H460V33.333h6.667V40h6.667V33.333H480V26.666h6.667v6.668H480V40h20V33.333h-6.666V26.666H500v6.668h6.669V40h6.666V33.333H520V40h6.668V33.333h6.666V40H540V33.333h6.667V40h6.667V33.333H560V26.666h6.667v6.668H560V40h20V33.333h-6.666V26.666H580v6.668h6.668V40h6.667V33.333H600V26.666h-6.666v6.667h-6.666V26.666h6.666V20H600V0Z" fill="#fff"/></svg>