<svg width="200" height="200" viewBox="0 0 200 200" fill="none" xmlns="http://www.w3.org/2000/svg">
<g clip-path="url(#clip0_3_51)">
<path d="M20.53 143.11C19.94 143.11 19.35 142.87 18.93 142.45C18.51 142.03 18.27 141.45 18.27 140.85V59.15C18.27 58.56 18.51 57.97 18.93 57.55C19.35 57.13 19.93 56.89 20.53 56.89H163.66C164.9 56.89 165.92 57.9 165.92 59.15V74.97H179.48C180.72 74.97 181.74 75.98 181.74 77.23V122.77C181.74 123.37 181.51 123.94 181.08 124.37C180.66 124.79 180.08 125.03 179.48 125.03H165.92V140.85C165.92 141.45 165.69 142.02 165.26 142.45C164.84 142.87 164.26 143.11 163.66 143.11H20.53ZM22.78 138.59H161.4V61.41H22.78V138.59ZM165.92 120.51H177.22V79.48H165.92V120.51ZM103.9 127.29C103.31 127.29 102.72 127.05 102.3 126.63C101.88 126.21 101.64 125.63 101.64 125.03V74.96C101.64 74.37 101.88 73.78 102.3 73.36C102.72 72.94 103.3 72.7 103.9 72.7H121.36C122.6 72.7 123.62 73.71 123.62 74.96V125.03C123.62 125.62 123.38 126.21 122.96 126.63C122.53 127.06 121.97 127.29 121.36 127.29H103.9ZM106.15 122.78H119.1V77.22H106.15V122.78ZM70.36 127.29C69.77 127.29 69.18 127.05 68.76 126.63C68.34 126.21 68.1 125.63 68.1 125.03V74.96C68.1 74.37 68.34 73.78 68.76 73.36C69.18 72.94 69.76 72.7 70.36 72.7H87.82C89.06 72.7 90.08 73.71 90.08 74.96V125.03C90.08 125.62 89.84 126.21 89.42 126.63C89 127.05 88.42 127.29 87.82 127.29H70.36ZM72.62 122.78H85.57V77.22H72.62V122.78ZM36.83 127.29C36.24 127.29 35.65 127.05 35.23 126.63C34.81 126.21 34.57 125.63 34.57 125.03V74.96C34.57 74.37 34.81 73.78 35.23 73.36C35.65 72.94 36.23 72.7 36.83 72.7H54.29C55.53 72.7 56.55 73.71 56.55 74.96V125.03C56.55 125.62 56.31 126.21 55.89 126.63C55.47 127.05 54.89 127.29 54.29 127.29H36.83ZM39.08 122.78H52.03V77.22H39.08V122.78Z" fill="#F2F0E8"/>
</g>
<defs>
<clipPath id="clip0_3_51">
<rect width="200" height="200" fill="white"/>
</clipPath>
</defs>
</svg>
