<svg width="200" height="200" viewBox="0 0 200 200" fill="none" xmlns="http://www.w3.org/2000/svg">
<g clip-path="url(#clip0_1_19)">
<path d="M100 172.63C99.6 172.63 99.2 172.53 98.84 172.32L37.88 137.16C37.16 136.75 36.72 135.98 36.72 135.15V64.8C36.72 63.97 37.16 63.21 37.88 62.79L98.84 27.68C99.55 27.27 100.43 27.27 101.15 27.68L162.12 62.72C162.84 63.13 163.28 63.9 163.28 64.73V135.16C163.28 135.99 162.84 136.75 162.12 137.17L101.15 172.33C100.8 172.53 100.4 172.63 100 172.63ZM41.35 133.82L100 167.64L158.65 133.81V66.05L100 32.35L41.35 66.13V133.82Z" fill="#242421"/>
<path d="M99.97 135.22C80.58 135.22 64.8 119.42 64.8 100.01C64.8 80.59 80.58 64.79 99.97 64.79C119.39 64.79 135.19 80.59 135.19 100.01C135.19 109.41 131.53 118.26 124.87 124.91C118.22 131.56 109.38 135.22 99.97 135.22ZM99.97 69.41C83.13 69.41 69.43 83.13 69.43 100C69.43 116.86 83.13 130.58 99.97 130.58C108.14 130.58 115.82 127.4 121.6 121.62C127.38 115.84 130.56 108.16 130.56 100C130.56 83.14 116.84 69.41 99.97 69.41Z" fill="#242421"/>
</g>
<defs>
<clipPath id="clip0_1_19">
<rect width="200" height="200" fill="white"/>
</clipPath>
</defs>
</svg>
